<svg
	width="64"
	height="64"
	viewBox="0 0 64 64"
	fill="none"
	xmlns="http://www.w3.org/2000/svg"
>
	<!-- Modern Toolkitlife favicon with gradient -->
	<defs>
		<linearGradient id="faviconGradient" x1="0%" y1="0%" x2="100%" y2="100%">
			<stop offset="0%" stop-color="#8A2BE2" />
			<stop offset="100%" stop-color="#4B0082" />
		</linearGradient>
	</defs>
	
	<!-- Background circle with gradient -->
	<circle cx="32" cy="32" r="30" fill="url(#faviconGradient)" />
	
	<!-- Source file -->
	<rect x="14" y="18" width="18" height="26" rx="3" fill="white" opacity="0.95"/>
	<rect x="18" y="24" width="10" height="2" rx="1" fill="url(#faviconGradient)" opacity="0.9"/>
	<rect x="18" y="30" width="8" height="2" rx="1" fill="url(#faviconGradient)" opacity="0.9"/>
	<rect x="18" y="36" width="6" height="2" rx="1" fill="url(#faviconGradient)" opacity="0.9"/>
	
	<!-- Conversion arrow -->
	<path d="M34 30 L42 30 M39 26 L42 30 L39 34" stroke="white" stroke-width="2.5" stroke-linecap="round" stroke-linejoin="round" fill="none"/>
	
	<!-- Target file (rotated) -->
	<rect x="46" y="22" width="18" height="22" rx="3" fill="white" opacity="0.8" transform="rotate(-8 55 33)"/>
	<circle cx="49" cy="28" r="1.5" fill="url(#faviconGradient)" opacity="0.7" transform="rotate(-8 49 28)"/>
	<circle cx="56" cy="30" r="1.5" fill="url(#faviconGradient)" opacity="0.7" transform="rotate(-8 56 30)"/>
	<circle cx="49" cy="36" r="1.5" fill="url(#faviconGradient)" opacity="0.7" transform="rotate(-8 49 36)"/>
</svg>